<?xml version="1.0" encoding="utf-8"?>
<!-- Generator: Adobe Illustrator 22.1.0, SVG Export Plug-In . SVG Version: 6.00 Build 0)  -->
<svg version="1.1" id="Layer_1" xmlns="http://www.w3.org/2000/svg" xmlns:xlink="http://www.w3.org/1999/xlink" x="0px" y="0px"
	 viewBox="0 0 292 292" style="enable-background:new 0 0 292 292;" xml:space="preserve">
<style type="text/css">
	.st0{fill:#FFD15F;}
</style>
<title>logo (2)</title>
<path class="st0" d="M146,23.1l106.4,61.5v122.9L146,268.9L39.6,207.5V84.5L146,23.1 M146,0L19.6,73v146L146,292l126.4-73V73L146,0
	L146,0z"/>
<g>
	<g>
		<path class="st0" d="M71.9,131h-5.1l-1.9,9.9H60l1.9-9.9h-5.1l-1.9,9.9h-5.7v5.5h4.7l-1.2,6h-5.5v5.5h4.4l-1.6,8.4h5.1l1.6-8.4
			h4.9l-1.6,8.4h5.1l1.6-8.4h5.7v-5.5h-4.6l1.2-6h4.8v-5.5H70L71.9,131L71.9,131z M64,146.3l-1.3,6h-5l1.2-6H64L64,146.3z"/>
	</g>
	<g>
		<path class="st0" d="M88.6,128.6c-6.6,0-10.6,4.2-11.2,10.5h6.8c0.1-2.2,1.5-4.6,4-4.6c2.7,0,4.2,2.2,4.2,4.7
			c0,3.1-1.6,5.1-4.7,5.1h-0.8v5.1l1.3-0.1c0.1,0,0.2,0,0.3,0c3,0,4.8,3,4.8,5.8c0,2.9-1.7,5.9-4.9,5.9c-3.2,0-5.1-2.4-5.2-5.3h-7.2
			c0.4,6.6,5.4,11.6,12.1,11.6c7,0,12.2-4.5,12.2-11.7c0-3.4-1.4-7.5-4.7-8.9c2.5-1.7,3.5-4.8,3.5-7.6
			C99.2,132.7,94.9,128.6,88.6,128.6L88.6,128.6z"/>
	</g>
	<g>
		<path class="st0" d="M117.8,128.1l-9.7,14.4c-2.4,3.5-4.5,7.9-4.5,12.2c0,7.3,5.6,12.4,12.8,12.4c7.5,0,12.9-5.4,12.9-12.9
			c0-6.3-4.2-12.1-10.9-12.1c-1,0-2,0.1-2.9,0.5l-0.1-0.1l7.5-10.6L117.8,128.1L117.8,128.1z M116.4,161.4c-3.6,0-5.8-3.5-5.8-6.8
			c0-3.3,2.2-6.8,5.8-6.8c3.6,0,5.8,3.5,5.8,6.8C122.2,157.8,120,161.4,116.4,161.4L116.4,161.4z"/>
	</g>
	<g>
		<path class="st0" d="M143.5,129.6h-10.2v36.6h10.2c10.4,0,17.7-8,17.7-18.3C161.2,137.5,154.1,129.6,143.5,129.6L143.5,129.6z
			 M140.5,160v-24.2h1.2c8.1,0,12.2,4.1,12.2,12.1c0,7.2-3.4,12.1-12.2,12.1H140.5L140.5,160z"/>
	</g>
	<g>
		<path class="st0" d="M181.5,128.6h-5.5l-14.3,37.6h7.5l3-7.7h12.7l2.8,7.7h7.6L181.5,128.6L181.5,128.6z M174.2,152.7l4-13.3h0.1
			l4.6,13.3H174.2L174.2,152.7z"/>
	</g>
	<g>
		<polygon class="st0" points="219.3,129.6 211,129.6 204,142.3 197.6,129.6 189.3,129.6 200.6,149.4 200.6,166.2 207.8,166.2 
			207.8,149.4 219.3,129.6 		"/>
	</g>
	<g>
		<path class="st0" d="M231.8,128.6c-6.2,0-10.7,4.9-10.7,11c0,5.7,3.4,8.1,8.2,10c2.9,1.1,6.4,2.2,6.4,6c0,2.8-1.8,5.3-4.7,5.3
			c-3.1,0-5.6-2.5-6.6-5.3l-4.6,4.5c2.5,4.2,6.2,7.1,11.3,7.1c7.5,0,12-5.2,12-12.5c0-12.3-14.5-9.7-14.5-15.9
			c0-2.4,2.2-4.1,4.5-4.1c2.4,0,4.1,1.2,5.5,3l3.4-5C239.6,130.2,235,128.6,231.8,128.6L231.8,128.6z"/>
	</g>
</g>
<rect x="47.1" y="176" class="st0" width="195.9" height="20"/>
<rect x="47.1" y="98" class="st0" width="195.9" height="20"/>
</svg>
